<mxfile host="app.diagrams.net" modified="2023-11-02T09:29:26.946Z" agent="Mozilla/5.0 (Macintosh; Intel Mac OS X 10_15_7) AppleWebKit/537.36 (KHTML, like Gecko) Chrome/118.0.0.0 Safari/537.36 Edg/118.0.2088.76" etag="JqzJigQa_V-vT1m11j2S" version="22.0.8" type="github">
  <diagram name="第 1 页" id="Gx3ybS0Sp8oPj3K3Cdt6">
    <mxGraphModel dx="1434" dy="796" grid="1" gridSize="10" guides="1" tooltips="1" connect="1" arrows="1" fold="1" page="1" pageScale="1" pageWidth="1169" pageHeight="1654" math="1" shadow="0">
      <root>
        <mxCell id="0" />
        <mxCell id="1" parent="0" />
        <mxCell id="7h3kgbNx5G_SMpX5QsYo-158" style="edgeStyle=none;shape=connector;rounded=0;orthogonalLoop=1;jettySize=auto;html=1;exitX=0.5;exitY=1;exitDx=0;exitDy=0;entryX=0.5;entryY=0;entryDx=0;entryDy=0;labelBackgroundColor=default;strokeColor=default;align=center;verticalAlign=middle;fontFamily=Times New Roman;fontSize=14;fontColor=default;endArrow=none;endFill=0;" edge="1" parent="1" source="7h3kgbNx5G_SMpX5QsYo-160" target="7h3kgbNx5G_SMpX5QsYo-162">
          <mxGeometry relative="1" as="geometry" />
        </mxCell>
        <mxCell id="7h3kgbNx5G_SMpX5QsYo-159" style="edgeStyle=none;shape=connector;rounded=0;orthogonalLoop=1;jettySize=auto;html=1;exitX=0.5;exitY=1;exitDx=0;exitDy=0;entryX=0.5;entryY=0;entryDx=0;entryDy=0;labelBackgroundColor=default;strokeColor=default;align=center;verticalAlign=middle;fontFamily=Times New Roman;fontSize=14;fontColor=default;endArrow=none;endFill=0;" edge="1" parent="1" source="7h3kgbNx5G_SMpX5QsYo-160" target="7h3kgbNx5G_SMpX5QsYo-166">
          <mxGeometry relative="1" as="geometry" />
        </mxCell>
        <mxCell id="7h3kgbNx5G_SMpX5QsYo-160" value="A" style="ellipse;whiteSpace=wrap;html=1;aspect=fixed;fontFamily=Times New Roman;fontSize=14;" vertex="1" parent="1">
          <mxGeometry x="866" y="120" width="30" height="30" as="geometry" />
        </mxCell>
        <mxCell id="7h3kgbNx5G_SMpX5QsYo-161" style="edgeStyle=none;shape=connector;rounded=0;orthogonalLoop=1;jettySize=auto;html=1;exitX=0.5;exitY=1;exitDx=0;exitDy=0;entryX=1;entryY=0;entryDx=0;entryDy=0;labelBackgroundColor=default;strokeColor=default;align=center;verticalAlign=middle;fontFamily=Times New Roman;fontSize=14;fontColor=default;endArrow=none;endFill=0;" edge="1" parent="1" source="7h3kgbNx5G_SMpX5QsYo-162" target="7h3kgbNx5G_SMpX5QsYo-168">
          <mxGeometry relative="1" as="geometry" />
        </mxCell>
        <mxCell id="7h3kgbNx5G_SMpX5QsYo-162" value="A" style="ellipse;whiteSpace=wrap;html=1;aspect=fixed;fontFamily=Times New Roman;fontSize=14;" vertex="1" parent="1">
          <mxGeometry x="916" y="200" width="30" height="30" as="geometry" />
        </mxCell>
        <mxCell id="7h3kgbNx5G_SMpX5QsYo-163" style="edgeStyle=none;shape=connector;rounded=0;orthogonalLoop=1;jettySize=auto;html=1;exitX=1;exitY=0.5;exitDx=0;exitDy=0;entryX=0;entryY=0.5;entryDx=0;entryDy=0;labelBackgroundColor=default;strokeColor=default;align=center;verticalAlign=middle;fontFamily=Times New Roman;fontSize=14;fontColor=default;endArrow=none;endFill=0;" edge="1" parent="1" source="7h3kgbNx5G_SMpX5QsYo-166" target="7h3kgbNx5G_SMpX5QsYo-162">
          <mxGeometry relative="1" as="geometry" />
        </mxCell>
        <mxCell id="7h3kgbNx5G_SMpX5QsYo-164" style="edgeStyle=none;shape=connector;rounded=0;orthogonalLoop=1;jettySize=auto;html=1;exitX=0.5;exitY=1;exitDx=0;exitDy=0;entryX=0;entryY=0;entryDx=0;entryDy=0;labelBackgroundColor=default;strokeColor=default;align=center;verticalAlign=middle;fontFamily=Times New Roman;fontSize=14;fontColor=default;endArrow=none;endFill=0;" edge="1" parent="1" source="7h3kgbNx5G_SMpX5QsYo-166" target="7h3kgbNx5G_SMpX5QsYo-168">
          <mxGeometry relative="1" as="geometry" />
        </mxCell>
        <mxCell id="7h3kgbNx5G_SMpX5QsYo-166" value="B" style="ellipse;whiteSpace=wrap;html=1;aspect=fixed;fontFamily=Times New Roman;fontSize=14;" vertex="1" parent="1">
          <mxGeometry x="821" y="200" width="30" height="30" as="geometry" />
        </mxCell>
        <mxCell id="7h3kgbNx5G_SMpX5QsYo-168" value="B" style="ellipse;whiteSpace=wrap;html=1;aspect=fixed;fontFamily=Times New Roman;fontSize=14;" vertex="1" parent="1">
          <mxGeometry x="866" y="270" width="30" height="30" as="geometry" />
        </mxCell>
        <mxCell id="7h3kgbNx5G_SMpX5QsYo-172" value="$$u_0$$" style="text;html=1;strokeColor=none;fillColor=none;align=center;verticalAlign=middle;whiteSpace=wrap;rounded=0;fontSize=14;fontFamily=Times New Roman;fontColor=default;" vertex="1" parent="1">
          <mxGeometry x="826" y="118" width="60" height="30" as="geometry" />
        </mxCell>
        <mxCell id="7h3kgbNx5G_SMpX5QsYo-173" value="$$u_1$$" style="text;html=1;strokeColor=none;fillColor=none;align=center;verticalAlign=middle;whiteSpace=wrap;rounded=0;fontSize=14;fontFamily=Times New Roman;fontColor=default;" vertex="1" parent="1">
          <mxGeometry x="876" y="190" width="60" height="30" as="geometry" />
        </mxCell>
        <mxCell id="7h3kgbNx5G_SMpX5QsYo-174" value="$$u_2$$" style="text;html=1;strokeColor=none;fillColor=none;align=center;verticalAlign=middle;whiteSpace=wrap;rounded=0;fontSize=14;fontFamily=Times New Roman;fontColor=default;" vertex="1" parent="1">
          <mxGeometry x="781" y="190" width="60" height="30" as="geometry" />
        </mxCell>
        <mxCell id="7h3kgbNx5G_SMpX5QsYo-176" value="$$u_4$$" style="text;html=1;strokeColor=none;fillColor=none;align=center;verticalAlign=middle;whiteSpace=wrap;rounded=0;fontSize=14;fontFamily=Times New Roman;fontColor=default;" vertex="1" parent="1">
          <mxGeometry x="826" y="270" width="60" height="30" as="geometry" />
        </mxCell>
        <mxCell id="7h3kgbNx5G_SMpX5QsYo-178" value="(b) Query Graph Q" style="text;html=1;strokeColor=none;fillColor=none;align=center;verticalAlign=middle;whiteSpace=wrap;rounded=0;fontSize=14;fontFamily=Times New Roman;fontColor=default;" vertex="1" parent="1">
          <mxGeometry x="723" y="430" width="240" height="20" as="geometry" />
        </mxCell>
        <mxCell id="7h3kgbNx5G_SMpX5QsYo-179" style="edgeStyle=none;shape=connector;rounded=0;orthogonalLoop=1;jettySize=auto;html=1;exitX=0.5;exitY=1;exitDx=0;exitDy=0;entryX=0.5;entryY=0;entryDx=0;entryDy=0;labelBackgroundColor=default;strokeColor=default;align=center;verticalAlign=middle;fontFamily=Times New Roman;fontSize=14;fontColor=default;endArrow=none;endFill=0;" edge="1" parent="1" source="7h3kgbNx5G_SMpX5QsYo-185" target="7h3kgbNx5G_SMpX5QsYo-196">
          <mxGeometry relative="1" as="geometry" />
        </mxCell>
        <mxCell id="7h3kgbNx5G_SMpX5QsYo-180" value="50" style="edgeLabel;html=1;align=center;verticalAlign=middle;resizable=0;points=[];fontSize=14;fontFamily=Times New Roman;fontColor=default;" vertex="1" connectable="0" parent="7h3kgbNx5G_SMpX5QsYo-179">
          <mxGeometry x="-0.0913" y="-4" relative="1" as="geometry">
            <mxPoint y="4" as="offset" />
          </mxGeometry>
        </mxCell>
        <mxCell id="7h3kgbNx5G_SMpX5QsYo-181" style="edgeStyle=none;shape=connector;rounded=0;orthogonalLoop=1;jettySize=auto;html=1;exitX=0.5;exitY=1;exitDx=0;exitDy=0;entryX=0.5;entryY=0;entryDx=0;entryDy=0;labelBackgroundColor=default;strokeColor=default;align=center;verticalAlign=middle;fontFamily=Times New Roman;fontSize=14;fontColor=default;endArrow=none;endFill=0;" edge="1" parent="1" source="7h3kgbNx5G_SMpX5QsYo-185" target="7h3kgbNx5G_SMpX5QsYo-229">
          <mxGeometry relative="1" as="geometry" />
        </mxCell>
        <mxCell id="7h3kgbNx5G_SMpX5QsYo-182" value="60" style="edgeLabel;html=1;align=center;verticalAlign=middle;resizable=0;points=[];fontSize=14;fontFamily=Times New Roman;fontColor=default;rotation=0;" vertex="1" connectable="0" parent="7h3kgbNx5G_SMpX5QsYo-181">
          <mxGeometry x="-0.1" y="2" relative="1" as="geometry">
            <mxPoint as="offset" />
          </mxGeometry>
        </mxCell>
        <mxCell id="7h3kgbNx5G_SMpX5QsYo-183" style="edgeStyle=none;shape=connector;rounded=0;orthogonalLoop=1;jettySize=auto;html=1;exitX=0.5;exitY=1;exitDx=0;exitDy=0;entryX=0.5;entryY=0;entryDx=0;entryDy=0;labelBackgroundColor=default;strokeColor=default;align=center;verticalAlign=middle;fontFamily=Times New Roman;fontSize=14;fontColor=default;endArrow=none;endFill=0;" edge="1" parent="1" source="7h3kgbNx5G_SMpX5QsYo-185" target="7h3kgbNx5G_SMpX5QsYo-206">
          <mxGeometry relative="1" as="geometry" />
        </mxCell>
        <mxCell id="7h3kgbNx5G_SMpX5QsYo-184" value="50" style="edgeLabel;html=1;align=center;verticalAlign=middle;resizable=0;points=[];fontSize=14;fontFamily=Times New Roman;fontColor=default;" vertex="1" connectable="0" parent="7h3kgbNx5G_SMpX5QsYo-183">
          <mxGeometry x="-0.6409" y="1" relative="1" as="geometry">
            <mxPoint x="31" y="2" as="offset" />
          </mxGeometry>
        </mxCell>
        <mxCell id="7h3kgbNx5G_SMpX5QsYo-185" value="A" style="ellipse;whiteSpace=wrap;html=1;aspect=fixed;fontFamily=Times New Roman;fontSize=14;" vertex="1" parent="1">
          <mxGeometry x="235" y="110" width="30" height="30" as="geometry" />
        </mxCell>
        <mxCell id="7h3kgbNx5G_SMpX5QsYo-186" style="edgeStyle=none;shape=connector;rounded=0;orthogonalLoop=1;jettySize=auto;html=1;exitX=1;exitY=0.5;exitDx=0;exitDy=0;entryX=0;entryY=0.5;entryDx=0;entryDy=0;labelBackgroundColor=default;strokeColor=default;align=center;verticalAlign=middle;fontFamily=Times New Roman;fontSize=14;fontColor=default;endArrow=none;endFill=0;" edge="1" parent="1" source="7h3kgbNx5G_SMpX5QsYo-196" target="7h3kgbNx5G_SMpX5QsYo-229">
          <mxGeometry relative="1" as="geometry" />
        </mxCell>
        <mxCell id="7h3kgbNx5G_SMpX5QsYo-187" value="55" style="edgeLabel;html=1;align=center;verticalAlign=middle;resizable=0;points=[];fontSize=14;fontFamily=Times New Roman;fontColor=default;" vertex="1" connectable="0" parent="7h3kgbNx5G_SMpX5QsYo-186">
          <mxGeometry x="0.0211" y="1" relative="1" as="geometry">
            <mxPoint as="offset" />
          </mxGeometry>
        </mxCell>
        <mxCell id="7h3kgbNx5G_SMpX5QsYo-188" style="edgeStyle=none;shape=connector;rounded=0;orthogonalLoop=1;jettySize=auto;html=1;exitX=0.5;exitY=1;exitDx=0;exitDy=0;entryX=0.5;entryY=0;entryDx=0;entryDy=0;labelBackgroundColor=default;strokeColor=default;align=center;verticalAlign=middle;fontFamily=Times New Roman;fontSize=14;fontColor=default;endArrow=none;endFill=0;" edge="1" parent="1" source="7h3kgbNx5G_SMpX5QsYo-196" target="7h3kgbNx5G_SMpX5QsYo-235">
          <mxGeometry relative="1" as="geometry" />
        </mxCell>
        <mxCell id="7h3kgbNx5G_SMpX5QsYo-189" value="57" style="edgeLabel;html=1;align=center;verticalAlign=middle;resizable=0;points=[];fontSize=14;fontFamily=Times New Roman;fontColor=default;" vertex="1" connectable="0" parent="7h3kgbNx5G_SMpX5QsYo-188">
          <mxGeometry x="0.0215" y="-1" relative="1" as="geometry">
            <mxPoint y="2" as="offset" />
          </mxGeometry>
        </mxCell>
        <mxCell id="7h3kgbNx5G_SMpX5QsYo-190" style="edgeStyle=none;shape=connector;rounded=0;orthogonalLoop=1;jettySize=auto;html=1;exitX=0.5;exitY=1;exitDx=0;exitDy=0;entryX=0.5;entryY=0;entryDx=0;entryDy=0;labelBackgroundColor=default;strokeColor=default;align=center;verticalAlign=middle;fontFamily=Times New Roman;fontSize=14;fontColor=default;endArrow=none;endFill=0;" edge="1" parent="1" source="7h3kgbNx5G_SMpX5QsYo-196" target="7h3kgbNx5G_SMpX5QsYo-238">
          <mxGeometry relative="1" as="geometry" />
        </mxCell>
        <mxCell id="7h3kgbNx5G_SMpX5QsYo-191" value="28" style="edgeLabel;html=1;align=center;verticalAlign=middle;resizable=0;points=[];fontSize=14;fontFamily=Times New Roman;fontColor=default;" vertex="1" connectable="0" parent="7h3kgbNx5G_SMpX5QsYo-190">
          <mxGeometry x="0.1289" y="-1" relative="1" as="geometry">
            <mxPoint as="offset" />
          </mxGeometry>
        </mxCell>
        <mxCell id="7h3kgbNx5G_SMpX5QsYo-192" style="edgeStyle=none;shape=connector;rounded=0;orthogonalLoop=1;jettySize=auto;html=1;exitX=0.5;exitY=1;exitDx=0;exitDy=0;entryX=0.5;entryY=0;entryDx=0;entryDy=0;labelBackgroundColor=default;strokeColor=default;align=center;verticalAlign=middle;fontFamily=Times New Roman;fontSize=14;fontColor=default;endArrow=none;endFill=0;" edge="1" parent="1" source="7h3kgbNx5G_SMpX5QsYo-196" target="7h3kgbNx5G_SMpX5QsYo-244">
          <mxGeometry relative="1" as="geometry" />
        </mxCell>
        <mxCell id="7h3kgbNx5G_SMpX5QsYo-193" value="18" style="edgeLabel;html=1;align=center;verticalAlign=middle;resizable=0;points=[];fontSize=14;fontFamily=Times New Roman;fontColor=default;" vertex="1" connectable="0" parent="7h3kgbNx5G_SMpX5QsYo-192">
          <mxGeometry x="0.066" relative="1" as="geometry">
            <mxPoint x="-1" as="offset" />
          </mxGeometry>
        </mxCell>
        <mxCell id="7h3kgbNx5G_SMpX5QsYo-194" style="edgeStyle=none;shape=connector;rounded=0;orthogonalLoop=1;jettySize=auto;html=1;exitX=0.5;exitY=1;exitDx=0;exitDy=0;entryX=0.5;entryY=0;entryDx=0;entryDy=0;labelBackgroundColor=default;strokeColor=default;align=center;verticalAlign=middle;fontFamily=Times New Roman;fontSize=14;fontColor=default;endArrow=none;endFill=0;" edge="1" parent="1" source="7h3kgbNx5G_SMpX5QsYo-196" target="7h3kgbNx5G_SMpX5QsYo-232">
          <mxGeometry relative="1" as="geometry" />
        </mxCell>
        <mxCell id="7h3kgbNx5G_SMpX5QsYo-195" value="46" style="edgeLabel;html=1;align=center;verticalAlign=middle;resizable=0;points=[];fontSize=14;fontFamily=Times New Roman;fontColor=default;" vertex="1" connectable="0" parent="7h3kgbNx5G_SMpX5QsYo-194">
          <mxGeometry x="0.1958" y="4" relative="1" as="geometry">
            <mxPoint as="offset" />
          </mxGeometry>
        </mxCell>
        <mxCell id="7h3kgbNx5G_SMpX5QsYo-196" value="B" style="ellipse;whiteSpace=wrap;html=1;aspect=fixed;fontFamily=Times New Roman;fontSize=14;" vertex="1" parent="1">
          <mxGeometry x="120" y="200" width="30" height="30" as="geometry" />
        </mxCell>
        <mxCell id="7h3kgbNx5G_SMpX5QsYo-197" value="C" style="ellipse;whiteSpace=wrap;html=1;aspect=fixed;fontFamily=Times New Roman;fontSize=14;" vertex="1" parent="1">
          <mxGeometry x="591" y="340" width="30" height="30" as="geometry" />
        </mxCell>
        <mxCell id="7h3kgbNx5G_SMpX5QsYo-198" style="edgeStyle=none;shape=connector;rounded=0;orthogonalLoop=1;jettySize=auto;html=1;exitX=0.5;exitY=1;exitDx=0;exitDy=0;entryX=0.5;entryY=0;entryDx=0;entryDy=0;labelBackgroundColor=default;strokeColor=default;align=center;verticalAlign=middle;fontFamily=Times New Roman;fontSize=14;fontColor=default;endArrow=none;endFill=0;" edge="1" parent="1" source="7h3kgbNx5G_SMpX5QsYo-206" target="7h3kgbNx5G_SMpX5QsYo-215">
          <mxGeometry relative="1" as="geometry" />
        </mxCell>
        <mxCell id="7h3kgbNx5G_SMpX5QsYo-199" value="40" style="edgeLabel;html=1;align=center;verticalAlign=middle;resizable=0;points=[];fontSize=14;fontFamily=Times New Roman;fontColor=default;" vertex="1" connectable="0" parent="7h3kgbNx5G_SMpX5QsYo-198">
          <mxGeometry x="0.0759" relative="1" as="geometry">
            <mxPoint as="offset" />
          </mxGeometry>
        </mxCell>
        <mxCell id="7h3kgbNx5G_SMpX5QsYo-200" style="edgeStyle=none;shape=connector;rounded=0;orthogonalLoop=1;jettySize=auto;html=1;exitX=0.5;exitY=1;exitDx=0;exitDy=0;entryX=0.5;entryY=0;entryDx=0;entryDy=0;labelBackgroundColor=default;strokeColor=default;align=center;verticalAlign=middle;fontFamily=Times New Roman;fontSize=14;fontColor=default;endArrow=none;endFill=0;" edge="1" parent="1" source="7h3kgbNx5G_SMpX5QsYo-206" target="7h3kgbNx5G_SMpX5QsYo-241">
          <mxGeometry relative="1" as="geometry" />
        </mxCell>
        <mxCell id="7h3kgbNx5G_SMpX5QsYo-201" value="33" style="edgeLabel;html=1;align=center;verticalAlign=middle;resizable=0;points=[];fontSize=14;fontFamily=Times New Roman;fontColor=default;" vertex="1" connectable="0" parent="7h3kgbNx5G_SMpX5QsYo-200">
          <mxGeometry x="0.0716" relative="1" as="geometry">
            <mxPoint as="offset" />
          </mxGeometry>
        </mxCell>
        <mxCell id="7h3kgbNx5G_SMpX5QsYo-202" style="edgeStyle=none;shape=connector;rounded=0;orthogonalLoop=1;jettySize=auto;html=1;exitX=0.5;exitY=1;exitDx=0;exitDy=0;entryX=0.5;entryY=0;entryDx=0;entryDy=0;labelBackgroundColor=default;strokeColor=default;align=center;verticalAlign=middle;fontFamily=Times New Roman;fontSize=14;fontColor=default;endArrow=none;endFill=0;" edge="1" parent="1" source="7h3kgbNx5G_SMpX5QsYo-206" target="7h3kgbNx5G_SMpX5QsYo-209">
          <mxGeometry relative="1" as="geometry" />
        </mxCell>
        <mxCell id="7h3kgbNx5G_SMpX5QsYo-203" value="15" style="edgeLabel;html=1;align=center;verticalAlign=middle;resizable=0;points=[];fontSize=14;fontFamily=Times New Roman;fontColor=default;" vertex="1" connectable="0" parent="7h3kgbNx5G_SMpX5QsYo-202">
          <mxGeometry x="0.0138" y="2" relative="1" as="geometry">
            <mxPoint as="offset" />
          </mxGeometry>
        </mxCell>
        <mxCell id="7h3kgbNx5G_SMpX5QsYo-204" value="" style="edgeStyle=none;shape=connector;rounded=0;orthogonalLoop=1;jettySize=auto;html=1;exitX=0.5;exitY=1;exitDx=0;exitDy=0;entryX=0.5;entryY=0;entryDx=0;entryDy=0;labelBackgroundColor=default;strokeColor=default;align=center;verticalAlign=middle;fontFamily=Times New Roman;fontSize=14;fontColor=default;endArrow=none;endFill=0;" edge="1" parent="1" source="7h3kgbNx5G_SMpX5QsYo-206" target="7h3kgbNx5G_SMpX5QsYo-258">
          <mxGeometry x="-0.176" y="-1" relative="1" as="geometry">
            <mxPoint as="offset" />
          </mxGeometry>
        </mxCell>
        <mxCell id="7h3kgbNx5G_SMpX5QsYo-205" value="46" style="edgeLabel;html=1;align=center;verticalAlign=middle;resizable=0;points=[];fontSize=14;fontFamily=Times New Roman;fontColor=default;" vertex="1" connectable="0" parent="7h3kgbNx5G_SMpX5QsYo-204">
          <mxGeometry x="-0.1792" y="-2" relative="1" as="geometry">
            <mxPoint x="-1" as="offset" />
          </mxGeometry>
        </mxCell>
        <mxCell id="7h3kgbNx5G_SMpX5QsYo-206" value="B" style="ellipse;whiteSpace=wrap;html=1;aspect=fixed;fontFamily=Times New Roman;fontSize=14;" vertex="1" parent="1">
          <mxGeometry x="591" y="200" width="30" height="30" as="geometry" />
        </mxCell>
        <mxCell id="7h3kgbNx5G_SMpX5QsYo-207" style="edgeStyle=none;shape=connector;rounded=0;orthogonalLoop=1;jettySize=auto;html=1;exitX=0.5;exitY=1;exitDx=0;exitDy=0;entryX=0.5;entryY=0;entryDx=0;entryDy=0;labelBackgroundColor=default;strokeColor=default;align=center;verticalAlign=middle;fontFamily=Times New Roman;fontSize=14;fontColor=default;endArrow=none;endFill=0;" edge="1" parent="1" source="7h3kgbNx5G_SMpX5QsYo-209" target="7h3kgbNx5G_SMpX5QsYo-197">
          <mxGeometry relative="1" as="geometry" />
        </mxCell>
        <mxCell id="7h3kgbNx5G_SMpX5QsYo-208" value="13" style="edgeLabel;html=1;align=center;verticalAlign=middle;resizable=0;points=[];fontSize=14;fontFamily=Times New Roman;fontColor=default;" vertex="1" connectable="0" parent="7h3kgbNx5G_SMpX5QsYo-207">
          <mxGeometry x="-0.2568" y="1" relative="1" as="geometry">
            <mxPoint as="offset" />
          </mxGeometry>
        </mxCell>
        <mxCell id="7h3kgbNx5G_SMpX5QsYo-209" value="D" style="ellipse;whiteSpace=wrap;html=1;aspect=fixed;fontFamily=Times New Roman;fontSize=14;" vertex="1" parent="1">
          <mxGeometry x="651" y="280" width="30" height="30" as="geometry" />
        </mxCell>
        <mxCell id="7h3kgbNx5G_SMpX5QsYo-210" style="edgeStyle=none;shape=connector;rounded=0;orthogonalLoop=1;jettySize=auto;html=1;exitX=0.5;exitY=0;exitDx=0;exitDy=0;entryX=0.5;entryY=1;entryDx=0;entryDy=0;labelBackgroundColor=default;strokeColor=default;align=center;verticalAlign=middle;fontFamily=Times New Roman;fontSize=14;fontColor=default;endArrow=none;endFill=0;" edge="1" parent="1" source="7h3kgbNx5G_SMpX5QsYo-212" target="7h3kgbNx5G_SMpX5QsYo-232">
          <mxGeometry relative="1" as="geometry" />
        </mxCell>
        <mxCell id="7h3kgbNx5G_SMpX5QsYo-211" value="59" style="edgeLabel;html=1;align=center;verticalAlign=middle;resizable=0;points=[];fontSize=14;fontFamily=Times New Roman;fontColor=default;" vertex="1" connectable="0" parent="7h3kgbNx5G_SMpX5QsYo-210">
          <mxGeometry x="0.3088" y="2" relative="1" as="geometry">
            <mxPoint as="offset" />
          </mxGeometry>
        </mxCell>
        <mxCell id="7h3kgbNx5G_SMpX5QsYo-212" value="C" style="ellipse;whiteSpace=wrap;html=1;aspect=fixed;fontFamily=Times New Roman;fontSize=14;" vertex="1" parent="1">
          <mxGeometry x="120" y="340" width="30" height="30" as="geometry" />
        </mxCell>
        <mxCell id="7h3kgbNx5G_SMpX5QsYo-213" style="edgeStyle=none;shape=connector;rounded=0;orthogonalLoop=1;jettySize=auto;html=1;exitX=0.5;exitY=1;exitDx=0;exitDy=0;entryX=0.5;entryY=0;entryDx=0;entryDy=0;labelBackgroundColor=default;strokeColor=default;align=center;verticalAlign=middle;fontFamily=Times New Roman;fontSize=14;fontColor=default;endArrow=none;endFill=0;" edge="1" parent="1" source="7h3kgbNx5G_SMpX5QsYo-215" target="7h3kgbNx5G_SMpX5QsYo-197">
          <mxGeometry relative="1" as="geometry" />
        </mxCell>
        <mxCell id="7h3kgbNx5G_SMpX5QsYo-214" value="38" style="edgeLabel;html=1;align=center;verticalAlign=middle;resizable=0;points=[];fontSize=14;fontFamily=Times New Roman;fontColor=default;" vertex="1" connectable="0" parent="7h3kgbNx5G_SMpX5QsYo-213">
          <mxGeometry x="-0.4674" y="3" relative="1" as="geometry">
            <mxPoint as="offset" />
          </mxGeometry>
        </mxCell>
        <mxCell id="7h3kgbNx5G_SMpX5QsYo-215" value="D" style="ellipse;whiteSpace=wrap;html=1;aspect=fixed;fontFamily=Times New Roman;fontSize=14;" vertex="1" parent="1">
          <mxGeometry x="531" y="280" width="30" height="30" as="geometry" />
        </mxCell>
        <mxCell id="7h3kgbNx5G_SMpX5QsYo-216" style="edgeStyle=none;shape=connector;rounded=0;orthogonalLoop=1;jettySize=auto;html=1;exitX=1;exitY=0.5;exitDx=0;exitDy=0;labelBackgroundColor=default;strokeColor=#FF0000;align=center;verticalAlign=middle;fontFamily=Times New Roman;fontSize=14;fontColor=default;endArrow=none;endFill=0;" edge="1" parent="1" source="7h3kgbNx5G_SMpX5QsYo-229" target="7h3kgbNx5G_SMpX5QsYo-206">
          <mxGeometry relative="1" as="geometry" />
        </mxCell>
        <mxCell id="7h3kgbNx5G_SMpX5QsYo-217" value="50" style="edgeLabel;html=1;align=center;verticalAlign=middle;resizable=0;points=[];fontSize=14;fontFamily=Times New Roman;fontColor=#ff0000;" vertex="1" connectable="0" parent="7h3kgbNx5G_SMpX5QsYo-216">
          <mxGeometry x="-0.0579" y="-2" relative="1" as="geometry">
            <mxPoint x="1" y="-2" as="offset" />
          </mxGeometry>
        </mxCell>
        <mxCell id="7h3kgbNx5G_SMpX5QsYo-218" style="edgeStyle=none;shape=connector;rounded=0;orthogonalLoop=1;jettySize=auto;html=1;exitX=0.5;exitY=1;exitDx=0;exitDy=0;entryX=0.5;entryY=0;entryDx=0;entryDy=0;labelBackgroundColor=default;strokeColor=default;align=center;verticalAlign=middle;fontFamily=Times New Roman;fontSize=14;fontColor=default;endArrow=none;endFill=0;" edge="1" parent="1" source="7h3kgbNx5G_SMpX5QsYo-229" target="7h3kgbNx5G_SMpX5QsYo-232">
          <mxGeometry relative="1" as="geometry" />
        </mxCell>
        <mxCell id="7h3kgbNx5G_SMpX5QsYo-219" value="65" style="edgeLabel;html=1;align=center;verticalAlign=middle;resizable=0;points=[];fontSize=14;fontFamily=Times New Roman;fontColor=default;" vertex="1" connectable="0" parent="7h3kgbNx5G_SMpX5QsYo-218">
          <mxGeometry x="0.0412" y="-3" relative="1" as="geometry">
            <mxPoint as="offset" />
          </mxGeometry>
        </mxCell>
        <mxCell id="7h3kgbNx5G_SMpX5QsYo-220" style="edgeStyle=none;shape=connector;rounded=0;orthogonalLoop=1;jettySize=auto;html=1;exitX=0.5;exitY=1;exitDx=0;exitDy=0;labelBackgroundColor=default;strokeColor=default;align=center;verticalAlign=middle;fontFamily=Times New Roman;fontSize=14;fontColor=default;endArrow=none;endFill=0;" edge="1" parent="1" source="7h3kgbNx5G_SMpX5QsYo-229">
          <mxGeometry relative="1" as="geometry">
            <mxPoint x="364.7368421052631" y="230.47368421052636" as="targetPoint" />
          </mxGeometry>
        </mxCell>
        <mxCell id="7h3kgbNx5G_SMpX5QsYo-221" style="edgeStyle=none;shape=connector;rounded=0;orthogonalLoop=1;jettySize=auto;html=1;exitX=0.5;exitY=1;exitDx=0;exitDy=0;entryX=0.5;entryY=0;entryDx=0;entryDy=0;labelBackgroundColor=default;strokeColor=default;align=center;verticalAlign=middle;fontFamily=Times New Roman;fontSize=14;fontColor=default;endArrow=none;endFill=0;" edge="1" parent="1" source="7h3kgbNx5G_SMpX5QsYo-229" target="7h3kgbNx5G_SMpX5QsYo-249">
          <mxGeometry relative="1" as="geometry" />
        </mxCell>
        <mxCell id="7h3kgbNx5G_SMpX5QsYo-222" value="100" style="edgeLabel;html=1;align=center;verticalAlign=middle;resizable=0;points=[];fontSize=14;fontFamily=Times New Roman;fontColor=default;" vertex="1" connectable="0" parent="7h3kgbNx5G_SMpX5QsYo-221">
          <mxGeometry x="0.1146" y="3" relative="1" as="geometry">
            <mxPoint as="offset" />
          </mxGeometry>
        </mxCell>
        <mxCell id="7h3kgbNx5G_SMpX5QsYo-223" style="edgeStyle=none;shape=connector;rounded=0;orthogonalLoop=1;jettySize=auto;html=1;exitX=0.5;exitY=1;exitDx=0;exitDy=0;entryX=0.5;entryY=0;entryDx=0;entryDy=0;labelBackgroundColor=default;strokeColor=default;align=center;verticalAlign=middle;fontFamily=Times New Roman;fontSize=14;fontColor=default;endArrow=none;endFill=0;" edge="1" parent="1" source="7h3kgbNx5G_SMpX5QsYo-229" target="7h3kgbNx5G_SMpX5QsYo-252">
          <mxGeometry relative="1" as="geometry" />
        </mxCell>
        <mxCell id="7h3kgbNx5G_SMpX5QsYo-224" value="100" style="edgeLabel;html=1;align=center;verticalAlign=middle;resizable=0;points=[];fontSize=14;fontFamily=Times New Roman;fontColor=default;" vertex="1" connectable="0" parent="7h3kgbNx5G_SMpX5QsYo-223">
          <mxGeometry x="0.1862" y="1" relative="1" as="geometry">
            <mxPoint x="1" y="-7" as="offset" />
          </mxGeometry>
        </mxCell>
        <mxCell id="7h3kgbNx5G_SMpX5QsYo-225" style="edgeStyle=none;shape=connector;rounded=0;orthogonalLoop=1;jettySize=auto;html=1;exitX=0.5;exitY=1;exitDx=0;exitDy=0;entryX=0.5;entryY=0;entryDx=0;entryDy=0;labelBackgroundColor=default;strokeColor=default;align=center;verticalAlign=middle;fontFamily=Times New Roman;fontSize=14;fontColor=default;endArrow=none;endFill=0;" edge="1" parent="1" source="7h3kgbNx5G_SMpX5QsYo-229" target="7h3kgbNx5G_SMpX5QsYo-255">
          <mxGeometry relative="1" as="geometry" />
        </mxCell>
        <mxCell id="7h3kgbNx5G_SMpX5QsYo-226" value="100" style="edgeLabel;html=1;align=center;verticalAlign=middle;resizable=0;points=[];fontSize=14;fontFamily=Times New Roman;fontColor=default;" vertex="1" connectable="0" parent="7h3kgbNx5G_SMpX5QsYo-225">
          <mxGeometry x="-0.1849" y="1" relative="1" as="geometry">
            <mxPoint as="offset" />
          </mxGeometry>
        </mxCell>
        <mxCell id="7h3kgbNx5G_SMpX5QsYo-227" style="edgeStyle=none;shape=connector;rounded=0;orthogonalLoop=1;jettySize=auto;html=1;exitX=0.5;exitY=1;exitDx=0;exitDy=0;entryX=0.5;entryY=0;entryDx=0;entryDy=0;labelBackgroundColor=default;strokeColor=default;align=center;verticalAlign=middle;fontFamily=Times New Roman;fontSize=14;fontColor=default;endArrow=none;endFill=0;" edge="1" parent="1" source="7h3kgbNx5G_SMpX5QsYo-229" target="7h3kgbNx5G_SMpX5QsYo-258">
          <mxGeometry relative="1" as="geometry" />
        </mxCell>
        <mxCell id="7h3kgbNx5G_SMpX5QsYo-228" value="56" style="edgeLabel;html=1;align=center;verticalAlign=middle;resizable=0;points=[];fontSize=14;fontFamily=Times New Roman;fontColor=default;" vertex="1" connectable="0" parent="7h3kgbNx5G_SMpX5QsYo-227">
          <mxGeometry x="-0.2096" y="2" relative="1" as="geometry">
            <mxPoint x="27" y="16" as="offset" />
          </mxGeometry>
        </mxCell>
        <mxCell id="7h3kgbNx5G_SMpX5QsYo-229" value="A" style="ellipse;whiteSpace=wrap;html=1;aspect=fixed;fontFamily=Times New Roman;fontSize=14;" vertex="1" parent="1">
          <mxGeometry x="350" y="200" width="30" height="30" as="geometry" />
        </mxCell>
        <mxCell id="7h3kgbNx5G_SMpX5QsYo-230" style="edgeStyle=none;shape=connector;rounded=0;orthogonalLoop=1;jettySize=auto;html=1;exitX=0.5;exitY=1;exitDx=0;exitDy=0;entryX=0.5;entryY=0;entryDx=0;entryDy=0;labelBackgroundColor=default;strokeColor=default;align=center;verticalAlign=middle;fontFamily=Times New Roman;fontSize=14;fontColor=default;endArrow=none;endFill=0;" edge="1" parent="1" source="7h3kgbNx5G_SMpX5QsYo-232" target="7h3kgbNx5G_SMpX5QsYo-197">
          <mxGeometry relative="1" as="geometry" />
        </mxCell>
        <mxCell id="7h3kgbNx5G_SMpX5QsYo-231" value="1" style="edgeLabel;html=1;align=center;verticalAlign=middle;resizable=0;points=[];fontSize=14;fontFamily=Times New Roman;fontColor=default;" vertex="1" connectable="0" parent="7h3kgbNx5G_SMpX5QsYo-230">
          <mxGeometry x="0.4231" relative="1" as="geometry">
            <mxPoint as="offset" />
          </mxGeometry>
        </mxCell>
        <mxCell id="7h3kgbNx5G_SMpX5QsYo-232" value="B" style="ellipse;whiteSpace=wrap;html=1;aspect=fixed;fontFamily=Times New Roman;fontSize=14;" vertex="1" parent="1">
          <mxGeometry x="240" y="280" width="30" height="30" as="geometry" />
        </mxCell>
        <mxCell id="7h3kgbNx5G_SMpX5QsYo-233" style="edgeStyle=none;shape=connector;rounded=0;orthogonalLoop=1;jettySize=auto;html=1;exitX=0.5;exitY=1;exitDx=0;exitDy=0;entryX=0.5;entryY=0;entryDx=0;entryDy=0;labelBackgroundColor=default;strokeColor=default;align=center;verticalAlign=middle;fontFamily=Times New Roman;fontSize=14;fontColor=default;endArrow=none;endFill=0;" edge="1" parent="1" source="7h3kgbNx5G_SMpX5QsYo-235" target="7h3kgbNx5G_SMpX5QsYo-212">
          <mxGeometry relative="1" as="geometry" />
        </mxCell>
        <mxCell id="7h3kgbNx5G_SMpX5QsYo-234" value="11" style="edgeLabel;html=1;align=center;verticalAlign=middle;resizable=0;points=[];fontSize=14;fontFamily=Times New Roman;fontColor=default;" vertex="1" connectable="0" parent="7h3kgbNx5G_SMpX5QsYo-233">
          <mxGeometry x="-0.3308" y="-2" relative="1" as="geometry">
            <mxPoint as="offset" />
          </mxGeometry>
        </mxCell>
        <mxCell id="7h3kgbNx5G_SMpX5QsYo-235" value="D" style="ellipse;whiteSpace=wrap;html=1;aspect=fixed;fontFamily=Times New Roman;fontSize=14;" vertex="1" parent="1">
          <mxGeometry x="60" y="280" width="30" height="30" as="geometry" />
        </mxCell>
        <mxCell id="7h3kgbNx5G_SMpX5QsYo-236" style="edgeStyle=none;shape=connector;rounded=0;orthogonalLoop=1;jettySize=auto;html=1;exitX=0.5;exitY=1;exitDx=0;exitDy=0;entryX=0.5;entryY=0;entryDx=0;entryDy=0;labelBackgroundColor=default;strokeColor=default;align=center;verticalAlign=middle;fontFamily=Times New Roman;fontSize=14;fontColor=default;endArrow=none;endFill=0;" edge="1" parent="1" source="7h3kgbNx5G_SMpX5QsYo-238" target="7h3kgbNx5G_SMpX5QsYo-212">
          <mxGeometry relative="1" as="geometry" />
        </mxCell>
        <mxCell id="7h3kgbNx5G_SMpX5QsYo-237" value="30" style="edgeLabel;html=1;align=center;verticalAlign=middle;resizable=0;points=[];fontSize=14;fontFamily=Times New Roman;fontColor=default;" vertex="1" connectable="0" parent="7h3kgbNx5G_SMpX5QsYo-236">
          <mxGeometry x="-0.1079" y="1" relative="1" as="geometry">
            <mxPoint y="-3" as="offset" />
          </mxGeometry>
        </mxCell>
        <mxCell id="7h3kgbNx5G_SMpX5QsYo-238" value="D" style="ellipse;whiteSpace=wrap;html=1;aspect=fixed;fontFamily=Times New Roman;fontSize=14;" vertex="1" parent="1">
          <mxGeometry x="120" y="280" width="30" height="30" as="geometry" />
        </mxCell>
        <mxCell id="7h3kgbNx5G_SMpX5QsYo-239" style="edgeStyle=none;shape=connector;rounded=0;orthogonalLoop=1;jettySize=auto;html=1;exitX=0.5;exitY=1;exitDx=0;exitDy=0;labelBackgroundColor=default;strokeColor=default;align=center;verticalAlign=middle;fontFamily=Times New Roman;fontSize=14;fontColor=default;endArrow=none;endFill=0;" edge="1" parent="1" source="7h3kgbNx5G_SMpX5QsYo-241" target="7h3kgbNx5G_SMpX5QsYo-197">
          <mxGeometry relative="1" as="geometry" />
        </mxCell>
        <mxCell id="7h3kgbNx5G_SMpX5QsYo-240" value="12" style="edgeLabel;html=1;align=center;verticalAlign=middle;resizable=0;points=[];fontSize=14;fontFamily=Times New Roman;fontColor=default;" vertex="1" connectable="0" parent="7h3kgbNx5G_SMpX5QsYo-239">
          <mxGeometry x="-0.3368" relative="1" as="geometry">
            <mxPoint as="offset" />
          </mxGeometry>
        </mxCell>
        <mxCell id="7h3kgbNx5G_SMpX5QsYo-241" value="D" style="ellipse;whiteSpace=wrap;html=1;aspect=fixed;fontFamily=Times New Roman;fontSize=14;" vertex="1" parent="1">
          <mxGeometry x="591" y="280" width="30" height="30" as="geometry" />
        </mxCell>
        <mxCell id="7h3kgbNx5G_SMpX5QsYo-242" style="edgeStyle=none;shape=connector;rounded=0;orthogonalLoop=1;jettySize=auto;html=1;exitX=0.5;exitY=1;exitDx=0;exitDy=0;entryX=0.5;entryY=0;entryDx=0;entryDy=0;labelBackgroundColor=default;strokeColor=default;align=center;verticalAlign=middle;fontFamily=Times New Roman;fontSize=14;fontColor=default;endArrow=none;endFill=0;" edge="1" parent="1" source="7h3kgbNx5G_SMpX5QsYo-244" target="7h3kgbNx5G_SMpX5QsYo-212">
          <mxGeometry relative="1" as="geometry" />
        </mxCell>
        <mxCell id="7h3kgbNx5G_SMpX5QsYo-243" value="56" style="edgeLabel;html=1;align=center;verticalAlign=middle;resizable=0;points=[];fontSize=14;fontFamily=Times New Roman;fontColor=default;" vertex="1" connectable="0" parent="7h3kgbNx5G_SMpX5QsYo-242">
          <mxGeometry x="-0.3591" y="-3" relative="1" as="geometry">
            <mxPoint as="offset" />
          </mxGeometry>
        </mxCell>
        <mxCell id="7h3kgbNx5G_SMpX5QsYo-244" value="D" style="ellipse;whiteSpace=wrap;html=1;aspect=fixed;fontFamily=Times New Roman;fontSize=14;" vertex="1" parent="1">
          <mxGeometry x="180" y="280" width="30" height="30" as="geometry" />
        </mxCell>
        <mxCell id="7h3kgbNx5G_SMpX5QsYo-245" style="edgeStyle=none;shape=connector;rounded=0;orthogonalLoop=1;jettySize=auto;html=1;exitX=0.25;exitY=1;exitDx=0;exitDy=0;labelBackgroundColor=default;strokeColor=default;align=center;verticalAlign=middle;fontFamily=Times New Roman;fontSize=14;fontColor=default;endArrow=none;endFill=0;" edge="1" parent="1">
          <mxGeometry relative="1" as="geometry">
            <mxPoint x="39" y="310" as="sourcePoint" />
            <mxPoint x="39" y="310" as="targetPoint" />
          </mxGeometry>
        </mxCell>
        <mxCell id="7h3kgbNx5G_SMpX5QsYo-246" value="(a) Dynamic Graph G&amp;nbsp;" style="text;html=1;strokeColor=none;fillColor=none;align=center;verticalAlign=middle;whiteSpace=wrap;rounded=0;fontSize=14;fontFamily=Times New Roman;fontColor=default;" vertex="1" parent="1">
          <mxGeometry x="230" y="430" width="270" height="20" as="geometry" />
        </mxCell>
        <mxCell id="7h3kgbNx5G_SMpX5QsYo-247" style="edgeStyle=none;shape=connector;rounded=0;orthogonalLoop=1;jettySize=auto;html=1;exitX=0.5;exitY=1;exitDx=0;exitDy=0;labelBackgroundColor=default;strokeColor=default;align=center;verticalAlign=middle;fontFamily=Times New Roman;fontSize=14;fontColor=default;endArrow=none;endFill=0;" edge="1" parent="1" source="7h3kgbNx5G_SMpX5QsYo-249" target="7h3kgbNx5G_SMpX5QsYo-262">
          <mxGeometry relative="1" as="geometry" />
        </mxCell>
        <mxCell id="7h3kgbNx5G_SMpX5QsYo-248" value="100" style="edgeLabel;html=1;align=center;verticalAlign=middle;resizable=0;points=[];fontSize=14;fontFamily=Times New Roman;fontColor=default;" vertex="1" connectable="0" parent="7h3kgbNx5G_SMpX5QsYo-247">
          <mxGeometry x="0.1544" y="1" relative="1" as="geometry">
            <mxPoint y="2" as="offset" />
          </mxGeometry>
        </mxCell>
        <mxCell id="7h3kgbNx5G_SMpX5QsYo-249" value="B" style="ellipse;whiteSpace=wrap;html=1;aspect=fixed;fontFamily=Times New Roman;fontSize=14;" vertex="1" parent="1">
          <mxGeometry x="290" y="280" width="30" height="30" as="geometry" />
        </mxCell>
        <mxCell id="7h3kgbNx5G_SMpX5QsYo-250" style="edgeStyle=none;shape=connector;rounded=0;orthogonalLoop=1;jettySize=auto;html=1;exitX=0.5;exitY=1;exitDx=0;exitDy=0;entryX=0.5;entryY=0;entryDx=0;entryDy=0;labelBackgroundColor=default;strokeColor=default;align=center;verticalAlign=middle;fontFamily=Times New Roman;fontSize=14;fontColor=default;endArrow=none;endFill=0;" edge="1" parent="1" source="7h3kgbNx5G_SMpX5QsYo-252" target="7h3kgbNx5G_SMpX5QsYo-263">
          <mxGeometry relative="1" as="geometry" />
        </mxCell>
        <mxCell id="7h3kgbNx5G_SMpX5QsYo-251" value="100" style="edgeLabel;html=1;align=center;verticalAlign=middle;resizable=0;points=[];fontSize=14;fontFamily=Times New Roman;fontColor=default;" vertex="1" connectable="0" parent="7h3kgbNx5G_SMpX5QsYo-250">
          <mxGeometry x="0.2947" relative="1" as="geometry">
            <mxPoint y="1" as="offset" />
          </mxGeometry>
        </mxCell>
        <mxCell id="7h3kgbNx5G_SMpX5QsYo-252" value="B" style="ellipse;whiteSpace=wrap;html=1;aspect=fixed;fontFamily=Times New Roman;fontSize=14;" vertex="1" parent="1">
          <mxGeometry x="345" y="280" width="30" height="30" as="geometry" />
        </mxCell>
        <mxCell id="7h3kgbNx5G_SMpX5QsYo-253" style="edgeStyle=none;shape=connector;rounded=0;orthogonalLoop=1;jettySize=auto;html=1;exitX=0.5;exitY=1;exitDx=0;exitDy=0;entryX=0.5;entryY=0;entryDx=0;entryDy=0;labelBackgroundColor=default;strokeColor=default;align=center;verticalAlign=middle;fontFamily=Times New Roman;fontSize=14;fontColor=default;endArrow=none;endFill=0;" edge="1" parent="1" source="7h3kgbNx5G_SMpX5QsYo-255" target="7h3kgbNx5G_SMpX5QsYo-264">
          <mxGeometry relative="1" as="geometry" />
        </mxCell>
        <mxCell id="7h3kgbNx5G_SMpX5QsYo-254" value="100" style="edgeLabel;html=1;align=center;verticalAlign=middle;resizable=0;points=[];fontSize=14;fontFamily=Times New Roman;fontColor=default;" vertex="1" connectable="0" parent="7h3kgbNx5G_SMpX5QsYo-253">
          <mxGeometry x="0.014" y="-1" relative="1" as="geometry">
            <mxPoint y="8" as="offset" />
          </mxGeometry>
        </mxCell>
        <mxCell id="7h3kgbNx5G_SMpX5QsYo-255" value="B" style="ellipse;whiteSpace=wrap;html=1;aspect=fixed;fontFamily=Times New Roman;fontSize=14;" vertex="1" parent="1">
          <mxGeometry x="420" y="280" width="30" height="30" as="geometry" />
        </mxCell>
        <mxCell id="7h3kgbNx5G_SMpX5QsYo-256" style="edgeStyle=none;shape=connector;rounded=0;orthogonalLoop=1;jettySize=auto;html=1;exitX=1;exitY=1;exitDx=0;exitDy=0;entryX=0.5;entryY=0;entryDx=0;entryDy=0;labelBackgroundColor=default;strokeColor=default;align=center;verticalAlign=middle;fontFamily=Times New Roman;fontSize=14;fontColor=default;endArrow=none;endFill=0;" edge="1" parent="1" source="7h3kgbNx5G_SMpX5QsYo-258" target="7h3kgbNx5G_SMpX5QsYo-197">
          <mxGeometry relative="1" as="geometry" />
        </mxCell>
        <mxCell id="7h3kgbNx5G_SMpX5QsYo-257" value="60" style="edgeLabel;html=1;align=center;verticalAlign=middle;resizable=0;points=[];fontSize=14;fontFamily=Times New Roman;fontColor=default;" vertex="1" connectable="0" parent="7h3kgbNx5G_SMpX5QsYo-256">
          <mxGeometry x="-0.6914" y="-3" relative="1" as="geometry">
            <mxPoint as="offset" />
          </mxGeometry>
        </mxCell>
        <mxCell id="7h3kgbNx5G_SMpX5QsYo-258" value="B" style="ellipse;whiteSpace=wrap;html=1;aspect=fixed;fontFamily=Times New Roman;fontSize=14;" vertex="1" parent="1">
          <mxGeometry x="480" y="280" width="30" height="30" as="geometry" />
        </mxCell>
        <mxCell id="7h3kgbNx5G_SMpX5QsYo-259" value="......" style="text;html=1;strokeColor=none;fillColor=none;align=center;verticalAlign=middle;whiteSpace=wrap;rounded=0;fontSize=14;fontFamily=Times New Roman;fontColor=default;" vertex="1" parent="1">
          <mxGeometry x="370" y="280" width="60" height="30" as="geometry" />
        </mxCell>
        <mxCell id="7h3kgbNx5G_SMpX5QsYo-260" value="" style="shape=curlyBracket;whiteSpace=wrap;html=1;rounded=1;labelPosition=left;verticalLabelPosition=middle;align=right;verticalAlign=middle;fontFamily=Times New Roman;fontSize=14;fontColor=default;rotation=-90;" vertex="1" parent="1">
          <mxGeometry x="357.5" y="322.5" width="25" height="130" as="geometry" />
        </mxCell>
        <mxCell id="7h3kgbNx5G_SMpX5QsYo-261" value="1000" style="text;html=1;strokeColor=none;fillColor=none;align=center;verticalAlign=middle;whiteSpace=wrap;rounded=0;fontSize=14;fontFamily=Times New Roman;fontColor=default;" vertex="1" parent="1">
          <mxGeometry x="335" y="400" width="60" height="30" as="geometry" />
        </mxCell>
        <mxCell id="7h3kgbNx5G_SMpX5QsYo-262" value="C" style="ellipse;whiteSpace=wrap;html=1;aspect=fixed;fontFamily=Times New Roman;fontSize=14;" vertex="1" parent="1">
          <mxGeometry x="290" y="340" width="30" height="30" as="geometry" />
        </mxCell>
        <mxCell id="7h3kgbNx5G_SMpX5QsYo-263" value="C" style="ellipse;whiteSpace=wrap;html=1;aspect=fixed;fontFamily=Times New Roman;fontSize=14;" vertex="1" parent="1">
          <mxGeometry x="345" y="340" width="30" height="30" as="geometry" />
        </mxCell>
        <mxCell id="7h3kgbNx5G_SMpX5QsYo-264" value="C" style="ellipse;whiteSpace=wrap;html=1;aspect=fixed;fontFamily=Times New Roman;fontSize=14;" vertex="1" parent="1">
          <mxGeometry x="420" y="340" width="30" height="30" as="geometry" />
        </mxCell>
        <mxCell id="7h3kgbNx5G_SMpX5QsYo-265" style="edgeStyle=none;shape=connector;rounded=0;orthogonalLoop=1;jettySize=auto;html=1;exitX=0.5;exitY=1;exitDx=0;exitDy=0;entryX=0.5;entryY=0;entryDx=0;entryDy=0;labelBackgroundColor=default;strokeColor=default;align=center;verticalAlign=middle;fontFamily=Times New Roman;fontSize=14;fontColor=default;endArrow=none;endFill=0;" edge="1" parent="1" source="7h3kgbNx5G_SMpX5QsYo-269" target="7h3kgbNx5G_SMpX5QsYo-229">
          <mxGeometry relative="1" as="geometry" />
        </mxCell>
        <mxCell id="7h3kgbNx5G_SMpX5QsYo-266" value="1" style="edgeLabel;html=1;align=center;verticalAlign=middle;resizable=0;points=[];fontSize=14;fontFamily=Times New Roman;fontColor=default;" vertex="1" connectable="0" parent="7h3kgbNx5G_SMpX5QsYo-265">
          <mxGeometry x="-0.5049" y="1" relative="1" as="geometry">
            <mxPoint y="1" as="offset" />
          </mxGeometry>
        </mxCell>
        <mxCell id="7h3kgbNx5G_SMpX5QsYo-267" style="edgeStyle=none;shape=connector;rounded=0;orthogonalLoop=1;jettySize=auto;html=1;exitX=0.5;exitY=1;exitDx=0;exitDy=0;entryX=0.5;entryY=0;entryDx=0;entryDy=0;labelBackgroundColor=default;strokeColor=default;align=center;verticalAlign=middle;fontFamily=Times New Roman;fontSize=14;fontColor=default;endArrow=none;endFill=0;" edge="1" parent="1" source="7h3kgbNx5G_SMpX5QsYo-269" target="7h3kgbNx5G_SMpX5QsYo-206">
          <mxGeometry relative="1" as="geometry" />
        </mxCell>
        <mxCell id="7h3kgbNx5G_SMpX5QsYo-268" value="1" style="edgeLabel;html=1;align=center;verticalAlign=middle;resizable=0;points=[];fontSize=14;fontFamily=Times New Roman;fontColor=default;" vertex="1" connectable="0" parent="7h3kgbNx5G_SMpX5QsYo-267">
          <mxGeometry x="-0.7554" y="1" relative="1" as="geometry">
            <mxPoint as="offset" />
          </mxGeometry>
        </mxCell>
        <mxCell id="7h3kgbNx5G_SMpX5QsYo-269" value="A" style="ellipse;whiteSpace=wrap;html=1;aspect=fixed;fontFamily=Times New Roman;fontSize=14;" vertex="1" parent="1">
          <mxGeometry x="400" y="110" width="30" height="30" as="geometry" />
        </mxCell>
        <mxCell id="7h3kgbNx5G_SMpX5QsYo-270" style="edgeStyle=none;shape=connector;rounded=0;orthogonalLoop=1;jettySize=auto;html=1;exitX=0.5;exitY=1;exitDx=0;exitDy=0;entryX=0.5;entryY=0;entryDx=0;entryDy=0;labelBackgroundColor=default;strokeColor=default;align=center;verticalAlign=middle;fontFamily=Times New Roman;fontSize=14;fontColor=default;endArrow=none;endFill=0;" edge="1" parent="1" source="7h3kgbNx5G_SMpX5QsYo-274" target="7h3kgbNx5G_SMpX5QsYo-229">
          <mxGeometry relative="1" as="geometry" />
        </mxCell>
        <mxCell id="7h3kgbNx5G_SMpX5QsYo-271" value="1" style="edgeLabel;html=1;align=center;verticalAlign=middle;resizable=0;points=[];fontSize=14;fontFamily=Times New Roman;fontColor=default;" vertex="1" connectable="0" parent="7h3kgbNx5G_SMpX5QsYo-270">
          <mxGeometry x="-0.2845" y="-1" relative="1" as="geometry">
            <mxPoint x="1" as="offset" />
          </mxGeometry>
        </mxCell>
        <mxCell id="7h3kgbNx5G_SMpX5QsYo-272" style="edgeStyle=none;shape=connector;rounded=0;orthogonalLoop=1;jettySize=auto;html=1;exitX=0.5;exitY=1;exitDx=0;exitDy=0;entryX=0.5;entryY=0;entryDx=0;entryDy=0;labelBackgroundColor=default;strokeColor=default;align=center;verticalAlign=middle;fontFamily=Times New Roman;fontSize=14;fontColor=default;endArrow=none;endFill=0;" edge="1" parent="1" source="7h3kgbNx5G_SMpX5QsYo-274" target="7h3kgbNx5G_SMpX5QsYo-206">
          <mxGeometry relative="1" as="geometry" />
        </mxCell>
        <mxCell id="7h3kgbNx5G_SMpX5QsYo-273" value="1" style="edgeLabel;html=1;align=center;verticalAlign=middle;resizable=0;points=[];fontSize=14;fontFamily=Times New Roman;fontColor=default;" vertex="1" connectable="0" parent="7h3kgbNx5G_SMpX5QsYo-272">
          <mxGeometry x="-0.7183" y="2" relative="1" as="geometry">
            <mxPoint y="-1" as="offset" />
          </mxGeometry>
        </mxCell>
        <mxCell id="7h3kgbNx5G_SMpX5QsYo-274" value="A" style="ellipse;whiteSpace=wrap;html=1;aspect=fixed;fontFamily=Times New Roman;fontSize=14;" vertex="1" parent="1">
          <mxGeometry x="450" y="110" width="30" height="30" as="geometry" />
        </mxCell>
        <mxCell id="7h3kgbNx5G_SMpX5QsYo-275" style="edgeStyle=none;shape=connector;rounded=0;orthogonalLoop=1;jettySize=auto;html=1;exitX=0.5;exitY=1;exitDx=0;exitDy=0;entryX=0.5;entryY=0;entryDx=0;entryDy=0;labelBackgroundColor=default;strokeColor=default;align=center;verticalAlign=middle;fontFamily=Times New Roman;fontSize=14;fontColor=default;endArrow=none;endFill=0;" edge="1" parent="1" source="7h3kgbNx5G_SMpX5QsYo-279" target="7h3kgbNx5G_SMpX5QsYo-229">
          <mxGeometry relative="1" as="geometry" />
        </mxCell>
        <mxCell id="7h3kgbNx5G_SMpX5QsYo-276" value="1" style="edgeLabel;html=1;align=center;verticalAlign=middle;resizable=0;points=[];fontSize=14;fontFamily=Times New Roman;fontColor=default;" vertex="1" connectable="0" parent="7h3kgbNx5G_SMpX5QsYo-275">
          <mxGeometry x="-0.7186" relative="1" as="geometry">
            <mxPoint as="offset" />
          </mxGeometry>
        </mxCell>
        <mxCell id="7h3kgbNx5G_SMpX5QsYo-277" style="edgeStyle=none;shape=connector;rounded=0;orthogonalLoop=1;jettySize=auto;html=1;exitX=0.5;exitY=1;exitDx=0;exitDy=0;entryX=0.5;entryY=0;entryDx=0;entryDy=0;labelBackgroundColor=default;strokeColor=default;align=center;verticalAlign=middle;fontFamily=Times New Roman;fontSize=14;fontColor=default;endArrow=none;endFill=0;" edge="1" parent="1" source="7h3kgbNx5G_SMpX5QsYo-279" target="7h3kgbNx5G_SMpX5QsYo-206">
          <mxGeometry relative="1" as="geometry" />
        </mxCell>
        <mxCell id="7h3kgbNx5G_SMpX5QsYo-278" value="1" style="edgeLabel;html=1;align=center;verticalAlign=middle;resizable=0;points=[];fontSize=14;fontFamily=Times New Roman;fontColor=default;" vertex="1" connectable="0" parent="7h3kgbNx5G_SMpX5QsYo-277">
          <mxGeometry x="-0.2421" y="4" relative="1" as="geometry">
            <mxPoint as="offset" />
          </mxGeometry>
        </mxCell>
        <mxCell id="7h3kgbNx5G_SMpX5QsYo-279" value="A" style="ellipse;whiteSpace=wrap;html=1;aspect=fixed;fontFamily=Times New Roman;fontSize=14;" vertex="1" parent="1">
          <mxGeometry x="520" y="110" width="30" height="30" as="geometry" />
        </mxCell>
        <mxCell id="7h3kgbNx5G_SMpX5QsYo-280" value="......" style="text;html=1;strokeColor=none;fillColor=none;align=center;verticalAlign=middle;whiteSpace=wrap;rounded=0;fontSize=14;fontFamily=Times New Roman;fontColor=default;" vertex="1" parent="1">
          <mxGeometry x="470" y="110" width="60" height="30" as="geometry" />
        </mxCell>
        <mxCell id="7h3kgbNx5G_SMpX5QsYo-281" value="" style="shape=curlyBracket;whiteSpace=wrap;html=1;rounded=1;labelPosition=left;verticalLabelPosition=middle;align=right;verticalAlign=middle;fontFamily=Times New Roman;fontSize=14;fontColor=default;rotation=90;size=0.5;" vertex="1" parent="1">
          <mxGeometry x="465" y="30" width="20" height="120" as="geometry" />
        </mxCell>
        <mxCell id="7h3kgbNx5G_SMpX5QsYo-282" value="1000" style="text;html=1;strokeColor=none;fillColor=none;align=center;verticalAlign=middle;whiteSpace=wrap;rounded=0;fontSize=14;fontFamily=Times New Roman;fontColor=default;" vertex="1" parent="1">
          <mxGeometry x="445" y="60" width="60" height="30" as="geometry" />
        </mxCell>
        <mxCell id="7h3kgbNx5G_SMpX5QsYo-283" value="&lt;br style=&quot;font-size: 14px;&quot;&gt;$$v_{a_0}$$" style="text;html=1;strokeColor=none;fillColor=none;align=center;verticalAlign=middle;whiteSpace=wrap;rounded=0;fontSize=14;fontFamily=Times New Roman;fontColor=default;" vertex="1" parent="1">
          <mxGeometry x="195" y="90" width="60" height="30" as="geometry" />
        </mxCell>
        <mxCell id="7h3kgbNx5G_SMpX5QsYo-284" value="&lt;br style=&quot;font-size: 14px;&quot;&gt;$$v_{a_1}$$" style="text;html=1;strokeColor=none;fillColor=none;align=center;verticalAlign=middle;whiteSpace=wrap;rounded=0;fontSize=14;fontFamily=Times New Roman;fontColor=default;" vertex="1" parent="1">
          <mxGeometry x="360" y="90" width="60" height="30" as="geometry" />
        </mxCell>
        <mxCell id="7h3kgbNx5G_SMpX5QsYo-285" style="edgeStyle=none;shape=connector;rounded=0;orthogonalLoop=1;jettySize=auto;html=1;exitX=0.5;exitY=1;exitDx=0;exitDy=0;labelBackgroundColor=default;strokeColor=default;align=center;verticalAlign=middle;fontFamily=Times New Roman;fontSize=14;fontColor=default;endArrow=none;endFill=0;" edge="1" parent="1" source="7h3kgbNx5G_SMpX5QsYo-284" target="7h3kgbNx5G_SMpX5QsYo-284">
          <mxGeometry relative="1" as="geometry" />
        </mxCell>
        <mxCell id="7h3kgbNx5G_SMpX5QsYo-286" value="&lt;br style=&quot;font-size: 14px;&quot;&gt;$$v_{a_2}$$" style="text;html=1;strokeColor=none;fillColor=none;align=center;verticalAlign=middle;whiteSpace=wrap;rounded=0;fontSize=14;fontFamily=Times New Roman;fontColor=default;" vertex="1" parent="1">
          <mxGeometry x="410" y="90" width="60" height="30" as="geometry" />
        </mxCell>
        <mxCell id="7h3kgbNx5G_SMpX5QsYo-287" value="&lt;br style=&quot;font-size: 14px;&quot;&gt;$$v_{a_{1000}}$$" style="text;html=1;strokeColor=none;fillColor=none;align=center;verticalAlign=middle;whiteSpace=wrap;rounded=0;fontSize=14;fontFamily=Times New Roman;fontColor=default;" vertex="1" parent="1">
          <mxGeometry x="475" y="90" width="60" height="30" as="geometry" />
        </mxCell>
        <mxCell id="7h3kgbNx5G_SMpX5QsYo-288" value="&lt;br style=&quot;font-size: 14px;&quot;&gt;$$v_{a_{1001}}$$" style="text;html=1;strokeColor=none;fillColor=none;align=center;verticalAlign=middle;whiteSpace=wrap;rounded=0;fontSize=14;fontFamily=Times New Roman;fontColor=default;" vertex="1" parent="1">
          <mxGeometry x="305" y="178" width="60" height="30" as="geometry" />
        </mxCell>
        <mxCell id="7h3kgbNx5G_SMpX5QsYo-289" value="&lt;br style=&quot;font-size: 14px;&quot;&gt;$$v_{b_0}$$" style="text;html=1;strokeColor=none;fillColor=none;align=center;verticalAlign=middle;whiteSpace=wrap;rounded=0;fontSize=14;fontFamily=Times New Roman;fontColor=default;" vertex="1" parent="1">
          <mxGeometry x="200" y="260" width="60" height="30" as="geometry" />
        </mxCell>
        <mxCell id="7h3kgbNx5G_SMpX5QsYo-290" value="&lt;br style=&quot;font-size: 14px;&quot;&gt;$$v_{b_1}$$" style="text;html=1;strokeColor=none;fillColor=none;align=center;verticalAlign=middle;whiteSpace=wrap;rounded=0;fontSize=14;fontFamily=Times New Roman;fontColor=default;" vertex="1" parent="1">
          <mxGeometry x="250" y="260" width="60" height="30" as="geometry" />
        </mxCell>
        <mxCell id="7h3kgbNx5G_SMpX5QsYo-291" value="&lt;br style=&quot;font-size: 14px;&quot;&gt;$$v_{b_2}$$" style="text;html=1;strokeColor=none;fillColor=none;align=center;verticalAlign=middle;whiteSpace=wrap;rounded=0;fontSize=14;fontFamily=Times New Roman;fontColor=default;" vertex="1" parent="1">
          <mxGeometry x="305" y="260" width="60" height="30" as="geometry" />
        </mxCell>
        <mxCell id="7h3kgbNx5G_SMpX5QsYo-292" value="&lt;br style=&quot;font-size: 14px;&quot;&gt;$$v_{b_{1000}}$$" style="text;html=1;strokeColor=none;fillColor=none;align=center;verticalAlign=middle;whiteSpace=wrap;rounded=0;fontSize=14;fontFamily=Times New Roman;fontColor=default;" vertex="1" parent="1">
          <mxGeometry x="375" y="260" width="60" height="30" as="geometry" />
        </mxCell>
        <mxCell id="7h3kgbNx5G_SMpX5QsYo-293" value="&lt;br style=&quot;font-size: 14px;&quot;&gt;$$v_{b_{1001}}$$" style="text;html=1;strokeColor=none;fillColor=none;align=center;verticalAlign=middle;whiteSpace=wrap;rounded=0;fontSize=14;fontFamily=Times New Roman;fontColor=default;" vertex="1" parent="1">
          <mxGeometry x="75" y="178" width="60" height="30" as="geometry" />
        </mxCell>
        <mxCell id="7h3kgbNx5G_SMpX5QsYo-294" value="&lt;br style=&quot;font-size: 14px;&quot;&gt;$$v_{b_{1002}}$$" style="text;html=1;strokeColor=none;fillColor=none;align=center;verticalAlign=middle;whiteSpace=wrap;rounded=0;fontSize=14;fontFamily=Times New Roman;fontColor=default;" vertex="1" parent="1">
          <mxGeometry x="546" y="178" width="60" height="30" as="geometry" />
        </mxCell>
        <mxCell id="7h3kgbNx5G_SMpX5QsYo-295" value="&lt;br style=&quot;font-size: 14px;&quot;&gt;$$v_{b_{1003}}$$" style="text;html=1;strokeColor=none;fillColor=none;align=center;verticalAlign=middle;whiteSpace=wrap;rounded=0;fontSize=14;fontFamily=Times New Roman;fontColor=default;" vertex="1" parent="1">
          <mxGeometry x="435" y="260" width="60" height="30" as="geometry" />
        </mxCell>
        <mxCell id="7h3kgbNx5G_SMpX5QsYo-296" style="edgeStyle=none;shape=connector;rounded=0;orthogonalLoop=1;jettySize=auto;html=1;exitX=0.5;exitY=1;exitDx=0;exitDy=0;labelBackgroundColor=default;strokeColor=default;align=center;verticalAlign=middle;fontFamily=Times New Roman;fontSize=14;fontColor=default;endArrow=none;endFill=0;" edge="1" parent="1">
          <mxGeometry relative="1" as="geometry">
            <mxPoint x="50" y="290" as="sourcePoint" />
            <mxPoint x="50" y="290" as="targetPoint" />
          </mxGeometry>
        </mxCell>
        <mxCell id="7h3kgbNx5G_SMpX5QsYo-297" value="&lt;br style=&quot;font-size: 14px;&quot;&gt;$$v_{d_1}$$" style="text;html=1;strokeColor=none;fillColor=none;align=center;verticalAlign=middle;whiteSpace=wrap;rounded=0;fontSize=14;fontFamily=Times New Roman;fontColor=default;" vertex="1" parent="1">
          <mxGeometry x="80" y="260" width="60" height="30" as="geometry" />
        </mxCell>
        <mxCell id="7h3kgbNx5G_SMpX5QsYo-298" value="&lt;br style=&quot;font-size: 14px;&quot;&gt;$$v_{d_2}$$" style="text;html=1;strokeColor=none;fillColor=none;align=center;verticalAlign=middle;whiteSpace=wrap;rounded=0;fontSize=14;fontFamily=Times New Roman;fontColor=default;" vertex="1" parent="1">
          <mxGeometry x="140" y="260" width="60" height="30" as="geometry" />
        </mxCell>
        <mxCell id="7h3kgbNx5G_SMpX5QsYo-299" value="&lt;br style=&quot;font-size: 14px;&quot;&gt;$$v_{d_3}$$" style="text;html=1;strokeColor=none;fillColor=none;align=center;verticalAlign=middle;whiteSpace=wrap;rounded=0;fontSize=14;fontFamily=Times New Roman;fontColor=default;" vertex="1" parent="1">
          <mxGeometry x="491" y="260" width="60" height="30" as="geometry" />
        </mxCell>
        <mxCell id="7h3kgbNx5G_SMpX5QsYo-300" value="&lt;br style=&quot;font-size: 14px;&quot;&gt;$$v_{d_4}$$" style="text;html=1;strokeColor=none;fillColor=none;align=center;verticalAlign=middle;whiteSpace=wrap;rounded=0;fontSize=14;fontFamily=Times New Roman;fontColor=default;" vertex="1" parent="1">
          <mxGeometry x="551" y="260" width="60" height="30" as="geometry" />
        </mxCell>
        <mxCell id="7h3kgbNx5G_SMpX5QsYo-301" value="&lt;br style=&quot;font-size: 14px;&quot;&gt;$$v_{d_5}$$" style="text;html=1;strokeColor=none;fillColor=none;align=center;verticalAlign=middle;whiteSpace=wrap;rounded=0;fontSize=14;fontFamily=Times New Roman;fontColor=default;" vertex="1" parent="1">
          <mxGeometry x="611" y="260" width="60" height="30" as="geometry" />
        </mxCell>
        <mxCell id="7h3kgbNx5G_SMpX5QsYo-302" value="&lt;br style=&quot;font-size: 14px;&quot;&gt;$$v_{c_0}$$" style="text;html=1;strokeColor=none;fillColor=none;align=center;verticalAlign=middle;whiteSpace=wrap;rounded=0;fontSize=14;fontFamily=Times New Roman;fontColor=default;" vertex="1" parent="1">
          <mxGeometry x="80" y="330" width="60" height="30" as="geometry" />
        </mxCell>
        <mxCell id="7h3kgbNx5G_SMpX5QsYo-303" value="&lt;br style=&quot;font-size: 14px;&quot;&gt;$$v_{c_1}$$" style="text;html=1;strokeColor=none;fillColor=none;align=center;verticalAlign=middle;whiteSpace=wrap;rounded=0;fontSize=14;fontFamily=Times New Roman;fontColor=default;" vertex="1" parent="1">
          <mxGeometry x="250" y="330" width="60" height="30" as="geometry" />
        </mxCell>
        <mxCell id="7h3kgbNx5G_SMpX5QsYo-304" value="&lt;br style=&quot;font-size: 14px;&quot;&gt;$$v_{c_2}$$" style="text;html=1;strokeColor=none;fillColor=none;align=center;verticalAlign=middle;whiteSpace=wrap;rounded=0;fontSize=14;fontFamily=Times New Roman;fontColor=default;" vertex="1" parent="1">
          <mxGeometry x="305" y="330" width="60" height="30" as="geometry" />
        </mxCell>
        <mxCell id="7h3kgbNx5G_SMpX5QsYo-305" value="&lt;br style=&quot;font-size: 14px;&quot;&gt;$$v_{c_{1000}}$$" style="text;html=1;strokeColor=none;fillColor=none;align=center;verticalAlign=middle;whiteSpace=wrap;rounded=0;fontSize=14;fontFamily=Times New Roman;fontColor=default;" vertex="1" parent="1">
          <mxGeometry x="375" y="330" width="60" height="30" as="geometry" />
        </mxCell>
        <mxCell id="7h3kgbNx5G_SMpX5QsYo-306" value="&lt;br style=&quot;font-size: 14px;&quot;&gt;$$v_{c_{1001}}$$" style="text;html=1;strokeColor=none;fillColor=none;align=center;verticalAlign=middle;whiteSpace=wrap;rounded=0;fontSize=14;fontFamily=Times New Roman;fontColor=default;" vertex="1" parent="1">
          <mxGeometry x="543" y="330" width="60" height="30" as="geometry" />
        </mxCell>
        <mxCell id="7h3kgbNx5G_SMpX5QsYo-307" style="edgeStyle=none;shape=connector;rounded=0;orthogonalLoop=1;jettySize=auto;html=1;exitX=0.5;exitY=1;exitDx=0;exitDy=0;labelBackgroundColor=default;strokeColor=default;align=center;verticalAlign=middle;fontFamily=Times New Roman;fontSize=14;fontColor=default;endArrow=none;endFill=0;" edge="1" parent="1" source="7h3kgbNx5G_SMpX5QsYo-306" target="7h3kgbNx5G_SMpX5QsYo-306">
          <mxGeometry relative="1" as="geometry" />
        </mxCell>
        <mxCell id="7h3kgbNx5G_SMpX5QsYo-308" style="edgeStyle=none;shape=connector;rounded=0;orthogonalLoop=1;jettySize=auto;html=1;exitX=0.5;exitY=1;exitDx=0;exitDy=0;labelBackgroundColor=default;strokeColor=default;align=center;verticalAlign=middle;fontFamily=Times New Roman;fontSize=14;fontColor=default;endArrow=none;endFill=0;entryX=0.5;entryY=0;entryDx=0;entryDy=0;" edge="1" parent="1" source="7h3kgbNx5G_SMpX5QsYo-206" target="7h3kgbNx5G_SMpX5QsYo-232">
          <mxGeometry relative="1" as="geometry">
            <mxPoint x="260" y="280" as="targetPoint" />
          </mxGeometry>
        </mxCell>
        <mxCell id="7h3kgbNx5G_SMpX5QsYo-309" value="1" style="edgeLabel;html=1;align=center;verticalAlign=middle;resizable=0;points=[];fontSize=14;fontFamily=Times New Roman;fontColor=default;" vertex="1" connectable="0" parent="7h3kgbNx5G_SMpX5QsYo-308">
          <mxGeometry x="-0.4753" y="2" relative="1" as="geometry">
            <mxPoint x="-30" as="offset" />
          </mxGeometry>
        </mxCell>
        <mxCell id="7h3kgbNx5G_SMpX5QsYo-310" style="edgeStyle=none;shape=connector;rounded=0;orthogonalLoop=1;jettySize=auto;html=1;exitX=0.5;exitY=1;exitDx=0;exitDy=0;labelBackgroundColor=default;strokeColor=default;align=center;verticalAlign=middle;fontFamily=Times New Roman;fontSize=14;fontColor=default;endArrow=none;endFill=0;" edge="1" parent="1" source="7h3kgbNx5G_SMpX5QsYo-295" target="7h3kgbNx5G_SMpX5QsYo-295">
          <mxGeometry relative="1" as="geometry" />
        </mxCell>
        <mxCell id="7h3kgbNx5G_SMpX5QsYo-311" style="edgeStyle=none;shape=connector;rounded=0;orthogonalLoop=1;jettySize=auto;html=1;exitX=0.5;exitY=1;exitDx=0;exitDy=0;labelBackgroundColor=default;strokeColor=default;align=center;verticalAlign=middle;fontFamily=Times New Roman;fontSize=14;fontColor=default;endArrow=none;endFill=0;" edge="1" parent="1" source="7h3kgbNx5G_SMpX5QsYo-301" target="7h3kgbNx5G_SMpX5QsYo-301">
          <mxGeometry relative="1" as="geometry" />
        </mxCell>
        <mxCell id="7h3kgbNx5G_SMpX5QsYo-312" style="edgeStyle=none;shape=connector;rounded=0;orthogonalLoop=1;jettySize=auto;html=1;exitX=0.5;exitY=1;exitDx=0;exitDy=0;labelBackgroundColor=default;strokeColor=default;align=center;verticalAlign=middle;fontFamily=Times New Roman;fontSize=14;fontColor=default;endArrow=none;endFill=0;" edge="1" parent="1" source="7h3kgbNx5G_SMpX5QsYo-301" target="7h3kgbNx5G_SMpX5QsYo-301">
          <mxGeometry relative="1" as="geometry" />
        </mxCell>
        <mxCell id="7h3kgbNx5G_SMpX5QsYo-313" style="edgeStyle=none;shape=connector;rounded=0;orthogonalLoop=1;jettySize=auto;html=1;exitX=0.5;exitY=1;exitDx=0;exitDy=0;labelBackgroundColor=default;strokeColor=default;align=center;verticalAlign=middle;fontFamily=Times New Roman;fontSize=14;fontColor=default;endArrow=none;endFill=0;" edge="1" parent="1" source="7h3kgbNx5G_SMpX5QsYo-301" target="7h3kgbNx5G_SMpX5QsYo-301">
          <mxGeometry relative="1" as="geometry" />
        </mxCell>
        <mxCell id="7h3kgbNx5G_SMpX5QsYo-314" style="edgeStyle=none;shape=connector;rounded=0;orthogonalLoop=1;jettySize=auto;html=1;exitX=0.5;exitY=1;exitDx=0;exitDy=0;labelBackgroundColor=default;strokeColor=default;align=center;verticalAlign=middle;fontFamily=Times New Roman;fontSize=14;fontColor=default;endArrow=none;endFill=0;" edge="1" parent="1" source="7h3kgbNx5G_SMpX5QsYo-295" target="7h3kgbNx5G_SMpX5QsYo-295">
          <mxGeometry relative="1" as="geometry" />
        </mxCell>
      </root>
    </mxGraphModel>
  </diagram>
</mxfile>
